<?xml version="1.0" encoding="utf-8"?>
<!-- Generator: Adobe Illustrator 27.4.1, SVG Export Plug-In . SVG Version: 6.00 Build 0)  -->
<svg version="1.1" id="a33cb57e-e685-47d9-9e54-8e14ef6e9c9b"
	 xmlns="http://www.w3.org/2000/svg" xmlns:xlink="http://www.w3.org/1999/xlink" x="0px" y="0px" viewBox="0 0 893.2 296.9"
	 style="enable-background:new 0 0 893.2 296.9;" xml:space="preserve">
<style type="text/css">
	.st0{fill:#0076B6;}
	.st1{fill:#FFFFFF;}
</style>
<path class="st0" d="M123.9,142.3c-16.2,9.9-37.3,4.9-47.3-11.3c-2.4-4-4-8.4-4.7-13H6c2.8,55.2,49.7,97.6,104.9,94.9
	c20.1-1,39.3-8,55.4-20.1L123.9,142.3z"/>
<path class="st1" d="M16.1,68.9C10.1,81.1,6.7,94.4,6,108h65.9c0.4-2.4,1-4.8,1.8-7.1L16.1,68.9z"/>
<path class="st1" d="M181.2,47.3L133.8,93c9.4,13,8.4,30.8-2.3,42.8l42.3,50.5C213.5,149.5,216.7,88,181.2,47.3L181.2,47.3z"/>
<path class="st1" d="M99.5,79.2c2.1-0.4,4.2-0.6,6.3-0.6c7.6,0,15,2.5,21,7.2l47.4-45.7C148.5,15.9,112,7.1,78.1,16.9L99.5,79.2z"/>
<path class="st1" d="M78.6,92.1c3.1-4,7-7.3,11.5-9.7L68.6,20.2c-19.7,7.9-36.4,22-47.7,40L78.6,92.1z"/>
<path class="st1" d="M494.7,133v31.2h-25V108h138.1c5.2-0.2,9.2-4.5,9.1-9.7c-0.2-4.9-4.1-8.9-9.1-9.1H469.7v-25h138.1
	c19,0.3,34.1,16,33.8,35c-0.3,18.5-15.3,33.5-33.8,33.8H494.7z"/>
<path class="st1" d="M429.2,131.5c11.1-3.5,19.8-12.3,22.9-23.5H306V89.3h146.2c-4.2-14.8-17.7-25-33.1-25H281v100h25V133h97.8
	l24.7,31.2h25L429.2,131.5z"/>
<path class="st1" d="M846.6,89.3c5.2,0,9.4,4.2,9.4,9.3c0,0,0,0,0,0v65.6h25V98.7c0-19-15.4-34.4-34.4-34.4c0,0,0,0,0,0H690.4
	c-19,0-34.4,15.4-34.4,34.4v65.6h25V98.7c0-5.2,4.2-9.4,9.4-9.4l0,0H756v75h25v-75H846.6z"/>
<g>
	<path class="st1" d="M353.3,276.9c-3.2,3.6-7.9,6.4-14,8.6c-6.2,2.2-12.9,3.3-20.3,3.3c-11.3,0-20.3-3.5-27.1-10.4
		c-6.8-6.9-10.4-16.5-10.8-28.8l-0.1-7.5c0-8.5,1.5-15.9,4.5-22.2c3-6.3,7.3-11.2,12.9-14.6c5.6-3.4,12.1-5.1,19.4-5.1
		c10.7,0,19.1,2.5,25,7.4c5.9,4.9,9.4,12.3,10.4,22h-20c-0.7-4.8-2.3-8.3-4.6-10.3c-2.4-2.1-5.7-3.1-10.1-3.1
		c-5.2,0-9.2,2.2-12.1,6.6c-2.8,4.4-4.3,10.7-4.3,19v5.2c0,8.6,1.5,15.1,4.4,19.4c2.9,4.3,7.6,6.5,13.9,6.5c5.4,0,9.4-1.2,12.1-3.6
		v-13.4H318v-14.3h35.2V276.9z"/>
	<path class="st1" d="M438.5,251h-32.7v20.6h38.6v16H385v-86.2h59.5v16.1h-38.7v18.2h32.7V251z"/>
	<path class="st1" d="M544.6,287.6h-20.7l-30.6-53.7v53.7h-20.8v-86.2h20.8l30.5,53.7v-53.7h20.7V287.6z"/>
	<path class="st1" d="M630.9,251h-32.7v20.6h38.6v16h-59.4v-86.2h59.5v16.1h-38.7v18.2h32.7V251z"/>
	<path class="st1" d="M709.4,264.7c0-3-1.1-5.4-3.2-7.1c-2.2-1.7-5.9-3.5-11.3-5.3c-5.4-1.8-9.8-3.6-13.3-5.3
		c-11.2-5.5-16.8-13-16.8-22.6c0-4.8,1.4-9,4.2-12.6c2.8-3.7,6.7-6.5,11.8-8.5c5.1-2,10.8-3.1,17.2-3.1c6.2,0,11.8,1.1,16.7,3.3
		c4.9,2.2,8.7,5.4,11.5,9.4c2.7,4.1,4.1,8.8,4.1,14h-20.7c0-3.5-1.1-6.2-3.2-8.2c-2.2-1.9-5.1-2.9-8.7-2.9c-3.7,0-6.6,0.8-8.8,2.5
		c-2.2,1.6-3.2,3.7-3.2,6.2c0,2.2,1.2,4.2,3.6,6c2.4,1.8,6.5,3.7,12.5,5.6c6,1.9,10.9,4,14.7,6.2c9.3,5.4,14,12.8,14,22.2
		c0,7.5-2.8,13.5-8.5,17.8c-5.7,4.3-13.5,6.5-23.4,6.5c-7,0-13.3-1.3-19-3.8c-5.7-2.5-9.9-5.9-12.8-10.3c-2.9-4.4-4.3-9.4-4.3-15.1
		H683c0,4.6,1.2,8,3.6,10.2c2.4,2.2,6.3,3.3,11.6,3.3c3.4,0,6.2-0.7,8.1-2.2C708.4,269.4,709.4,267.3,709.4,264.7z"/>
	<path class="st1" d="M782.7,287.6h-20.7v-86.2h20.7V287.6z"/>
	<path class="st1" d="M861.3,264.7c0-3-1.1-5.4-3.2-7.1c-2.2-1.7-5.9-3.5-11.3-5.3c-5.4-1.8-9.8-3.6-13.3-5.3
		c-11.2-5.5-16.8-13-16.8-22.6c0-4.8,1.4-9,4.2-12.6c2.8-3.7,6.7-6.5,11.8-8.5c5.1-2,10.8-3.1,17.2-3.1c6.2,0,11.8,1.1,16.7,3.3
		c4.9,2.2,8.7,5.4,11.5,9.4c2.7,4.1,4.1,8.8,4.1,14h-20.7c0-3.5-1.1-6.2-3.2-8.2c-2.2-1.9-5.1-2.9-8.7-2.9c-3.7,0-6.6,0.8-8.8,2.5
		c-2.2,1.6-3.2,3.7-3.2,6.2c0,2.2,1.2,4.2,3.6,6c2.4,1.8,6.5,3.7,12.5,5.6c6,1.9,10.9,4,14.7,6.2c9.3,5.4,14,12.8,14,22.2
		c0,7.5-2.8,13.5-8.5,17.8c-5.7,4.3-13.5,6.5-23.4,6.5c-7,0-13.3-1.3-19-3.8c-5.7-2.5-9.9-5.9-12.8-10.3c-2.9-4.4-4.3-9.4-4.3-15.1
		h20.9c0,4.6,1.2,8,3.6,10.2c2.4,2.2,6.3,3.3,11.6,3.3c3.4,0,6.2-0.7,8.1-2.2C860.3,269.4,861.3,267.3,861.3,264.7z"/>
</g>
</svg>
