<?xml version="1.0" encoding="utf-8"?>
<!-- Generator: Adobe Illustrator 27.4.1, SVG Export Plug-In . SVG Version: 6.00 Build 0)  -->
<svg version="1.1" id="a33cb57e-e685-47d9-9e54-8e14ef6e9c9b"
	 xmlns="http://www.w3.org/2000/svg" xmlns:xlink="http://www.w3.org/1999/xlink" x="0px" y="0px" viewBox="0 0 215.2 221.3"
	 style="enable-background:new 0 0 215.2 221.3;" xml:space="preserve">
<style type="text/css">
	.st0{fill:#0076B6;}
	.st1{fill:#FFFFFF;}
</style>
<path class="st0" d="M123.9,142.3c-16.2,9.9-37.3,4.9-47.3-11.3c-2.4-4-4-8.4-4.7-13H6c2.8,55.2,49.7,97.6,104.9,94.9
	c20.1-1,39.3-8,55.4-20.1L123.9,142.3z"/>
<path class="st1" d="M16.1,68.9C10.1,81.1,6.7,94.4,6,108h65.9c0.4-2.4,1-4.8,1.8-7.1L16.1,68.9z"/>
<path class="st1" d="M181.2,47.3L133.8,93c9.4,13,8.4,30.8-2.3,42.8l42.3,50.5C213.5,149.5,216.7,88,181.2,47.3L181.2,47.3z"/>
<path class="st1" d="M99.5,79.2c2.1-0.4,4.2-0.6,6.3-0.6c7.6,0,15,2.5,21,7.2l47.4-45.7C148.5,15.9,112,7.1,78.1,16.9L99.5,79.2z"/>
<path class="st1" d="M78.6,92.1c3.1-4,7-7.3,11.5-9.7L68.6,20.2c-19.7,7.9-36.4,22-47.7,40L78.6,92.1z"/>
</svg>
